<svg id="bin" xmlns="http://www.w3.org/2000/svg" viewBox="5246 6347 45 46">
  <defs>
    <style>
      .cls-1, .cls-6 {
        fill: none;
      }

      .cls-1 {
        stroke: #f8b26a;
        stroke-width: 4px;
      }

      .cls-2 {
        fill: #f8b26a;
        font-size: 18px;
        font-family: Lato-Regular, Lato;
      }

      .cls-3 {
        fill: #fff;
      }

      .cls-4 {
        fill: #f33;
      }

      .cls-5 {
        stroke: none;
      }
    </style>
  </defs>
  <g id="bin-2" data-name="bin">
    <g id="bin-circle" class="cls-1" transform="translate(5246 6353)">
      <rect class="cls-5" width="40" height="40" rx="20"/>
      <rect class="cls-6" x="2" y="2" width="36" height="36" rx="18"/>
    </g>
    <text id="_0" data-name="0" class="cls-2" transform="translate(5266 6380)"><tspan id="binNum" x="-5.22" y="0">0</tspan></text>
  </g>
  <g id="fullBinAlert" transform="translate(-459 -31)">
    <path id="Path_35" data-name="Path 35" class="cls-3" d="M10,0A10,10,0,1,1,0,10,10,10,0,0,1,10,0Z" transform="translate(5730 6378)"/>
    <path id="Exclusion_2" data-name="Exclusion 2" class="cls-4" d="M469,52a10,10,0,1,1,10-10A10.011,10.011,0,0,1,469,52Zm.078-5.125a1.113,1.113,0,0,0-.8.333,1.148,1.148,0,0,0-.319.8,1.127,1.127,0,0,0,.319.8,1.034,1.034,0,0,0,.355.239,1.18,1.18,0,0,0,.882,0,1.1,1.1,0,0,0,.36-.239,1.122,1.122,0,0,0,.238-.355,1.144,1.144,0,0,0,.086-.445,1.159,1.159,0,0,0-.086-.441,1.124,1.124,0,0,0-.238-.36,1.182,1.182,0,0,0-.36-.243A1.113,1.113,0,0,0,469.078,46.876ZM468.349,36.1v5.148c0,.269,0,.536.013.792s.023.518.04.778.041.529.068.8.059.568.095.877h1.089c.034-.294.066-.589.095-.877.027-.27.049-.54.068-.8s.032-.522.04-.778.013-.523.013-.792V36.1Z" transform="translate(5271 6346)"/>
  </g>
</svg>
