<svg xmlns="http://www.w3.org/2000/svg" viewBox="5656.088 5984.854 122.618 30">
  <g id="logo" transform="translate(5630.088 5984.854)">
    <g id="Layer_1" data-name="Layer 1" transform="translate(26)">
      <path id="Path_1" data-name="Path 1" d="M5.483,7.609V26.067a4.806,4.806,0,0,1-.247,1.572A3.6,3.6,0,0,1,4.569,28.9a3.326,3.326,0,0,1-1.215.841,4.5,4.5,0,0,1-1.718.3,4.094,4.094,0,0,1-.859-.082A2.741,2.741,0,0,1,0,29.695l.082-.786a.2.2,0,0,1,.228-.2,1.544,1.544,0,0,1,.375.073,2.906,2.906,0,0,0,.649.064,2.531,2.531,0,0,0,1.974-.722,3,3,0,0,0,.64-2.056V7.609Zm.694-5.638a1.27,1.27,0,0,1-.128.548,1.6,1.6,0,0,1-.32.448,1.471,1.471,0,0,1-.457.32,1.489,1.489,0,0,1-.567.11,1.444,1.444,0,0,1-.557-.11,1.471,1.471,0,0,1-.457-.32,1.27,1.27,0,0,1-.311-.448,1.261,1.261,0,0,1-.119-.548A1.38,1.38,0,0,1,3.381,1.4,1.518,1.518,0,0,1,4.733.5,1.5,1.5,0,0,1,5.3.619a1.444,1.444,0,0,1,.457.338,1.828,1.828,0,0,1,.32.466,1.389,1.389,0,0,1,.128.548Z" transform="translate(0 -0.043)"/>
      <path id="Path_2" data-name="Path 2" d="M13.4,8.28V18.743a5.583,5.583,0,0,0,1.06,3.609,3.893,3.893,0,0,0,3.216,1.307,5.83,5.83,0,0,0,2.988-.813,8.663,8.663,0,0,0,2.495-2.266V8.28h1.563V24.646h-.859c-.311,0-.466-.146-.475-.429l-.146-2.431a9.238,9.238,0,0,1-2.632,2.266,6.506,6.506,0,0,1-3.317.859,6.141,6.141,0,0,1-2.385-.439,4.3,4.3,0,0,1-1.7-1.234A5.528,5.528,0,0,1,12.187,21.3a8.909,8.909,0,0,1-.347-2.568V8.28Z" transform="translate(-1.021 -0.714)"/>
      <path id="Path_3" data-name="Path 3" d="M40.662,10.293a.366.366,0,0,1-.356.228.914.914,0,0,1-.475-.2,6.625,6.625,0,0,0-.749-.457A6.268,6.268,0,0,0,37.93,9.4a5.894,5.894,0,0,0-1.672-.2,5.007,5.007,0,0,0-1.654.247,4.1,4.1,0,0,0-1.252.685,3.006,3.006,0,0,0-.8,1,2.568,2.568,0,0,0-.292,1.188,2.074,2.074,0,0,0,.393,1.279,3.39,3.39,0,0,0,1.042.914,7.9,7.9,0,0,0,1.453.621l1.672.53c.567.174,1.124.366,1.663.576a6.4,6.4,0,0,1,1.462.8A3.728,3.728,0,0,1,41,18.161a3.28,3.28,0,0,1,.4,1.718,5.126,5.126,0,0,1-.4,1.946,4.633,4.633,0,0,1-1.115,1.6,5.483,5.483,0,0,1-1.828,1.069,7.228,7.228,0,0,1-2.44.393,7.411,7.411,0,0,1-2.979-.548,8.352,8.352,0,0,1-2.23-1.444l.375-.557a.658.658,0,0,1,.183-.2.466.466,0,0,1,.274-.064.914.914,0,0,1,.53.265,6.4,6.4,0,0,0,.813.567,6.762,6.762,0,0,0,1.252.567,5.638,5.638,0,0,0,1.828.265,5.291,5.291,0,0,0,1.828-.292,3.719,3.719,0,0,0,1.316-.777,3.07,3.07,0,0,0,.795-1.16,3.655,3.655,0,0,0,.274-1.407,2.23,2.23,0,0,0-.393-1.362,3.363,3.363,0,0,0-1.033-.914,6.917,6.917,0,0,0-1.462-.64c-.539-.183-1.1-.356-1.672-.53s-1.142-.366-1.681-.576a6.5,6.5,0,0,1-1.389-.768A3.938,3.938,0,0,1,31.2,14.15a3.454,3.454,0,0,1-.393-1.709,3.856,3.856,0,0,1,.384-1.7,4.121,4.121,0,0,1,1.069-1.416,5.346,5.346,0,0,1,1.709-.969A6.442,6.442,0,0,1,36.222,8a7.475,7.475,0,0,1,2.659.439A6.4,6.4,0,0,1,41,9.754Z" transform="translate(-2.622 -0.69)"/>
      <path id="Path_4" data-name="Path 4" d="M51.538,24.369a3.509,3.509,0,0,1-2.586-.914,3.883,3.883,0,0,1-.914-2.842V9.419H45.681a.475.475,0,0,1-.3-.1.366.366,0,0,1-.11-.283V8.4l2.8-.2.393-5.857a.439.439,0,0,1,.119-.265A.375.375,0,0,1,48.861,2h.731V8.25h5.154v1.17H49.592v11.1a3.655,3.655,0,0,0,.174,1.16,2.275,2.275,0,0,0,.475.795,1.937,1.937,0,0,0,.722.457,2.54,2.54,0,0,0,.914.146,2.623,2.623,0,0,0,1.014-.174,3.491,3.491,0,0,0,.74-.375,5.024,5.024,0,0,0,.512-.375.567.567,0,0,1,.311-.174.347.347,0,0,1,.265.164l.429.685a4.569,4.569,0,0,1-1.617,1.1A5.026,5.026,0,0,1,51.538,24.369Z" transform="translate(-3.904 -0.172)"/>
      <path id="Path_5" data-name="Path 5" d="M64.71,2.714a8.619,8.619,0,0,1,1.005-.85,7,7,0,0,1,1.224-.731A6.808,6.808,0,0,1,68.392.622,7.246,7.246,0,0,1,70.1.43a6.817,6.817,0,0,1,2.184.347,5.483,5.483,0,0,1,1.828.987,4.7,4.7,0,0,1,1.672,3.655A5.483,5.483,0,0,1,75.4,7.567a6.067,6.067,0,0,1-1.042,1.608,7.868,7.868,0,0,1-1.279,1.2l-1.288.978a7.31,7.31,0,0,0-1.023.914,1.6,1.6,0,0,0-.448,1.014l-.2,2.741H69.05l-.082-2.805v-.082a1.828,1.828,0,0,1,.393-1.215,6.625,6.625,0,0,1,.978-.987c.393-.32.813-.64,1.27-.969a9.137,9.137,0,0,0,1.27-1.151,6,6,0,0,0,.978-1.416A4.423,4.423,0,0,0,74.25,5.52,3.564,3.564,0,0,0,73.9,3.93a3.5,3.5,0,0,0-.914-1.188A4.359,4.359,0,0,0,71.627,2a5.236,5.236,0,0,0-1.608-.247,5.483,5.483,0,0,0-1.882.283,6.6,6.6,0,0,0-1.343.64,6.69,6.69,0,0,0-.859.649c-.21.192-.347.283-.429.283a.375.375,0,0,1-.356-.2ZM68.027,22.7a1.59,1.59,0,0,1,.119-.585,1.279,1.279,0,0,1,.32-.484,1.526,1.526,0,0,1,.475-.329,1.464,1.464,0,0,1,1.2,0,1.471,1.471,0,0,1,.484.329A1.5,1.5,0,0,1,71.07,22.7a1.453,1.453,0,0,1-.119.6,1.581,1.581,0,0,1-.329.475,1.444,1.444,0,0,1-.484.32,1.544,1.544,0,0,1-1.672-.3A1.444,1.444,0,0,1,68.027,22.7Z" transform="translate(-5.58 -0.037)"/>
      <path id="Path_6" data-name="Path 6" d="M97.679,24.621a.567.567,0,0,1-.612-.457l-.228-2.093a17.362,17.362,0,0,1-1.343,1.188,8.3,8.3,0,0,1-1.389.914,7.183,7.183,0,0,1-1.563.548,8.224,8.224,0,0,1-1.828.192,5.483,5.483,0,0,1-1.627-.247,4.158,4.158,0,0,1-1.4-.758,3.756,3.756,0,0,1-1-1.288A4.569,4.569,0,0,1,86.33,20.7a3.39,3.39,0,0,1,.585-1.919,4.916,4.916,0,0,1,1.828-1.553,12.327,12.327,0,0,1,3.235-1.051,28.326,28.326,0,0,1,4.77-.457V13.967a5.483,5.483,0,0,0-.978-3.5,3.518,3.518,0,0,0-2.906-1.224,5.483,5.483,0,0,0-2.019.329,7.2,7.2,0,0,0-1.407.722,8.619,8.619,0,0,0-.914.722,1.033,1.033,0,0,1-.612.329.521.521,0,0,1-.493-.292l-.274-.475A9.4,9.4,0,0,1,89.884,8.63,7.511,7.511,0,0,1,93.055,8a5.949,5.949,0,0,1,2.3.42A4.276,4.276,0,0,1,96.994,9.6a5.309,5.309,0,0,1,.978,1.892,8.69,8.69,0,0,1,.329,2.476V24.621ZM91.1,23.708a6.972,6.972,0,0,0,1.745-.174,6.561,6.561,0,0,0,1.48-.576,7.209,7.209,0,0,0,1.279-.914c.393-.338.786-.713,1.17-1.106V16.726a29.176,29.176,0,0,0-4.021.356,11.7,11.7,0,0,0-2.741.777A4.048,4.048,0,0,0,88.4,19.038a2.485,2.485,0,0,0-.521,1.553,3.417,3.417,0,0,0,.274,1.425A2.951,2.951,0,0,0,88.87,23a2.814,2.814,0,0,0,1,.53,4.24,4.24,0,0,0,1.234.219Z" transform="translate(-7.444 -0.69)"/>
      <path id="Path_7" data-name="Path 7" d="M113.724,10.3a.365.365,0,0,1-.356.228.914.914,0,0,1-.466-.2,6.853,6.853,0,0,0-.722-.493,6.012,6.012,0,0,0-1.151-.466,5.894,5.894,0,0,0-1.672-.2,5.008,5.008,0,0,0-1.617.247,4.1,4.1,0,0,0-1.252.685,3.006,3.006,0,0,0-.8,1,2.568,2.568,0,0,0-.292,1.188,2.074,2.074,0,0,0,.393,1.279,3.39,3.39,0,0,0,1.042.914,8.225,8.225,0,0,0,1.453.621l1.672.53c.567.174,1.124.366,1.663.576a6.4,6.4,0,0,1,1.462.8,3.728,3.728,0,0,1,1.033,1.17,3.28,3.28,0,0,1,.356,1.709,5.126,5.126,0,0,1-.384,1.992,4.633,4.633,0,0,1-1.115,1.6,5.482,5.482,0,0,1-1.828,1.069,7.191,7.191,0,0,1-2.44.393,7.411,7.411,0,0,1-2.979-.548,8.5,8.5,0,0,1-2.23-1.444l.375-.557a.658.658,0,0,1,.183-.2.466.466,0,0,1,.274-.064.914.914,0,0,1,.53.265,6.4,6.4,0,0,0,.813.567,6.761,6.761,0,0,0,1.252.567,5.638,5.638,0,0,0,1.828.265,5.291,5.291,0,0,0,1.828-.292,3.719,3.719,0,0,0,1.316-.777,3.07,3.07,0,0,0,.795-1.16,3.655,3.655,0,0,0,.274-1.407,2.23,2.23,0,0,0-.393-1.362,3.363,3.363,0,0,0-1.033-.914,6.917,6.917,0,0,0-1.462-.64c-.539-.183-1.1-.356-1.672-.53s-1.133-.366-1.681-.576a6.5,6.5,0,0,1-1.453-.786,3.938,3.938,0,0,1-1.042-1.16,3.454,3.454,0,0,1-.393-1.709,3.856,3.856,0,0,1,.384-1.672,4.239,4.239,0,0,1,1.069-1.416,5.345,5.345,0,0,1,1.709-.969,6.442,6.442,0,0,1,2.248-.366,7.475,7.475,0,0,1,2.659.439,6.4,6.4,0,0,1,2.129,1.325Z" transform="translate(-8.924 -0.694)"/>
      <path id="Path_8" data-name="Path 8" d="M122.05,0V14.62h.731a1.325,1.325,0,0,0,.429-.073,1.124,1.124,0,0,0,.457-.311L130.228,8a1.828,1.828,0,0,1,.375-.292.85.85,0,0,1,.484-.119h1.38l-7.219,6.862-.311.3a1.673,1.673,0,0,1-.329.238,1.827,1.827,0,0,1,.439.311l.384.393,7.575,8.224h-1.362a.85.85,0,0,1-.411-.091,1.581,1.581,0,0,1-.365-.283L124,16.174a1.827,1.827,0,0,0-.512-.4,1.773,1.773,0,0,0-.722-.11h-.74v8.224H120.46V0Z" transform="translate(-10.388)"/>
    </g>
  </g>
</svg>
