<svg xmlns="http://www.w3.org/2000/svg" viewBox="6970.218 5961.247 11.077 23.792">
  <path id="logo-mobile" d="M64.71,2.714a8.619,8.619,0,0,1,1.005-.85,7,7,0,0,1,1.224-.731A6.808,6.808,0,0,1,68.392.622,7.246,7.246,0,0,1,70.1.43a6.817,6.817,0,0,1,2.184.347,5.483,5.483,0,0,1,1.828.987,4.7,4.7,0,0,1,1.672,3.655A5.483,5.483,0,0,1,75.4,7.567a6.067,6.067,0,0,1-1.042,1.608,7.868,7.868,0,0,1-1.279,1.2l-1.288.978a7.31,7.31,0,0,0-1.023.914,1.6,1.6,0,0,0-.448,1.014l-.2,2.741H69.05l-.082-2.805v-.082a1.828,1.828,0,0,1,.393-1.215,6.625,6.625,0,0,1,.978-.987c.393-.32.813-.64,1.27-.969a9.137,9.137,0,0,0,1.27-1.151,6,6,0,0,0,.978-1.416A4.423,4.423,0,0,0,74.25,5.52,3.564,3.564,0,0,0,73.9,3.93a3.5,3.5,0,0,0-.914-1.188A4.359,4.359,0,0,0,71.627,2a5.236,5.236,0,0,0-1.608-.247,5.483,5.483,0,0,0-1.882.283,6.6,6.6,0,0,0-1.343.64,6.69,6.69,0,0,0-.859.649c-.21.192-.347.283-.429.283a.375.375,0,0,1-.356-.2ZM68.027,22.7a1.59,1.59,0,0,1,.119-.585,1.279,1.279,0,0,1,.32-.484,1.526,1.526,0,0,1,.475-.329,1.464,1.464,0,0,1,1.2,0,1.471,1.471,0,0,1,.484.329A1.5,1.5,0,0,1,71.07,22.7a1.453,1.453,0,0,1-.119.6,1.581,1.581,0,0,1-.329.475,1.444,1.444,0,0,1-.484.32,1.544,1.544,0,0,1-1.672-.3A1.444,1.444,0,0,1,68.027,22.7Z" transform="translate(6905.508 5960.817)"/>
</svg>
