<svg xmlns="http://www.w3.org/2000/svg" viewBox="7228 6581 23.173 25">
  <defs>
    <style>
      .cls-1 {
        fill: #f8b26a;
      }
    </style>
  </defs>
  <g id="logout" transform="translate(7210.781 6581)">
    <g id="Group_58" data-name="Group 58" transform="translate(17.219)">
      <path id="Path_33" data-name="Path 33" class="cls-1" d="M28.382,23.567H21.861a3.214,3.214,0,0,1-3.21-3.21V4.642a3.214,3.214,0,0,1,3.21-3.21h6.627a.716.716,0,1,0,0-1.433H21.861a4.648,4.648,0,0,0-4.642,4.642V20.358A4.648,4.648,0,0,0,21.861,25h6.521a.716.716,0,1,0,0-1.433Z" transform="translate(-17.219)"/>
      <path id="Path_34" data-name="Path 34" class="cls-1" d="M138,141.088l-4.552-4.552a.717.717,0,0,0-1.013,1.013l3.332,3.332H121.235a.716.716,0,1,0,0,1.433h14.532l-3.332,3.332a.719.719,0,0,0,.5,1.226.7.7,0,0,0,.5-.212L138,142.107A.716.716,0,0,0,138,141.088Z" transform="translate(-115.038 -129.092)"/>
    </g>
  </g>
</svg>
